<mxfile host="app.diagrams.net" modified="2024-02-07T09:43:03.112Z" agent="Mozilla/5.0 (Macintosh; Intel Mac OS X 10_15_7) AppleWebKit/537.36 (KHTML, like Gecko) Chrome/120.0.0.0 Safari/537.36" version="23.0.2" etag="j6MAkuSmS34X0n8iOU2g" type="github">
  <diagram name="第 1 页" id="gwFRF1EjP84AOqVDuxQ0">
    <mxGraphModel>
      <root>
        <mxCell id="0" />
        <mxCell id="1" parent="0" />
      </root>
    </mxGraphModel>
  </diagram>
</mxfile>
